<?xml version="1.0" encoding="UTF-8" standalone="no"?>
<!-- Created with Inkscape (http://www.inkscape.org/) -->

<svg
   xmlns:dc="http://purl.org/dc/elements/1.1/"
   xmlns:cc="http://creativecommons.org/ns#"
   xmlns:rdf="http://www.w3.org/1999/02/22-rdf-syntax-ns#"
   xmlns:svg="http://www.w3.org/2000/svg"
   xmlns="http://www.w3.org/2000/svg"
   xmlns:sodipodi="http://sodipodi.sourceforge.net/DTD/sodipodi-0.dtd"
   xmlns:inkscape="http://www.inkscape.org/namespaces/inkscape"
   width="99.624695mm"
   height="162.20018mm"
   viewBox="0 0 353.00089 574.72504"
   id="svg2"
   version="1.1"
   inkscape:version="0.91 r13725"
   sodipodi:docname="banner4.svg">
  <defs
     id="defs4" />
  <sodipodi:namedview
     id="base"
     pagecolor="#ffffff"
     bordercolor="#666666"
     borderopacity="1.0"
     inkscape:pageopacity="0.0"
     inkscape:pageshadow="2"
     inkscape:zoom="1"
     inkscape:cx="97.5"
     inkscape:cy="291.2236"
     inkscape:document-units="px"
     inkscape:current-layer="layer1"
     showgrid="false"
     inkscape:window-width="1375"
     inkscape:window-height="876"
     inkscape:window-x="65"
     inkscape:window-y="24"
     inkscape:window-maximized="1"
     fit-margin-top="0"
     fit-margin-left="0"
     fit-margin-right="0"
     fit-margin-bottom="0" />
  <metadata
     id="metadata7">
    <rdf:RDF>
      <cc:Work
         rdf:about="">
        <dc:format>image/svg+xml</dc:format>
        <dc:type
           rdf:resource="http://purl.org/dc/dcmitype/StillImage" />
        <dc:title></dc:title>
      </cc:Work>
    </rdf:RDF>
  </metadata>
  <g
     inkscape:label="Layer 1"
     inkscape:groupmode="layer"
     id="layer1"
     transform="translate(-129.5,-248.86078)">
    <path
       style="fill:none;fill-rule:evenodd;stroke:#000000;stroke-width:1px;stroke-linecap:butt;stroke-linejoin:miter;stroke-opacity:1"
       d="m 130,821.3622 0,-571 352,-1 -1,572 -1,2 0,-3 1,2 -1,0 0,0 -175,-118 z"
       id="path3352"
       inkscape:connector-curvature="0" />
    <path
       style="fill:#4b0082;stroke:none;stroke-width:1px;stroke-linecap:butt;stroke-linejoin:miter;stroke-opacity:1;fill-opacity:1"
       d="M 265.2,514.78853 C 219,483.56697 179.80057,457.25156 178.09015,456.30983 l -3.10985,-1.71224 -86.131257,57.65193 C 41.476853,543.95808 2.4887856,569.90145 2.2088939,569.90145 1.9290023,569.90145 1.7,442.39728 1.7,286.55885 L 1.7,3.2162463 18.95,2.5619036 C 28.4375,2.2020152 107.18864,1.906185 193.95252,1.9045032 l 157.75252,-0.00306 -0.63029,284.2500046 c -0.34666,156.3375 -0.91029,284.50954 -1.25252,284.82677 C 349.48,571.29544 311.4,546.01008 265.2,514.78853 Z"
       id="path3392"
       inkscape:connector-curvature="0"
       transform="translate(129.5,248.86078)" />
  </g>
</svg>
